/* XPM */
static char *_555b69bc3c54299d6694840857f5061[] = {
/* columns rows colors chars-per-pixel */
"16 16 203 2 ",
"   c #774E00",
".  c #795700",
"X  c #7C5800",
"o  c #7D5C10",
"O  c #7D611E",
"+  c #7E6523",
"@  c #7F6625",
"#  c #7F6530",
"$  c #876700",
"%  c #846B00",
"&  c #886D00",
"*  c #8B6F00",
"=  c #847000",
"-  c #8A7100",
";  c #887200",
":  c #8B7300",
">  c #8B7600",
",  c #8D7600",
"<  c #8C7C00",
"1  c #8A720C",
"2  c #816212",
"3  c #846513",
"4  c #806216",
"5  c #826811",
"6  c #826B17",
"7  c #856815",
"8  c #81661E",
"9  c #846A18",
"0  c #82681C",
"q  c #83681C",
"w  c #876E1E",
"e  c #8B7412",
"r  c #8C7A16",
"t  c #8C771A",
"y  c #89761F",
"u  c #8A7E1D",
"i  c #836322",
"p  c #806420",
"a  c #836B22",
"s  c #846B21",
"d  c #856D20",
"f  c #876F22",
"g  c #806926",
"h  c #816A27",
"j  c #826E24",
"k  c #836D26",
"l  c #80682A",
"z  c #836B2A",
"x  c #876B2F",
"c  c #836C2C",
"v  c #816D2E",
"b  c #866F2E",
"n  c #877321",
"m  c #867026",
"M  c #867027",
"N  c #867327",
"B  c #8B7526",
"V  c #8A7627",
"C  c #897B22",
"Z  c #8C7C27",
"A  c #86712A",
"S  c #87732B",
"D  c #87752B",
"F  c #87772B",
"G  c #84702D",
"H  c #84712D",
"J  c #86732F",
"K  c #887428",
"L  c #8B772A",
"P  c #89742E",
"I  c #897B2D",
"U  c #8A7A2D",
"Y  c #897A2E",
"T  c #806432",
"R  c #846A33",
"E  c #826D31",
"W  c #807030",
"Q  c #877032",
"!  c #837630",
"~  c #807337",
"^  c #887130",
"/  c #8A7131",
"(  c #887731",
")  c #887633",
"_  c #8E7537",
"`  c #8D7636",
"'  c #877C34",
"]  c #897933",
"[  c #8B7B33",
"{  c #8B7E31",
"}  c #897D33",
"|  c #8C7834",
" . c #8C7A35",
".. c #847138",
"X. c #87753C",
"o. c #87763C",
"O. c #8A7539",
"+. c #8D773A",
"@. c #877F3F",
"#. c #8B7939",
"$. c #8E7B3A",
"%. c #917F3A",
"&. c #907E3B",
"*. c #947D3C",
"=. c #837F46",
"-. c #8B7A40",
";. c #8A7B44",
":. c #8B7B45",
">. c #908000",
",. c #8F8327",
"<. c #92862F",
"1. c #8B8030",
"2. c #8F8335",
"3. c #8F8437",
"4. c #8B803B",
"5. c #8B813B",
"6. c #91843A",
"7. c #91833E",
"8. c #97833F",
"9. c #868044",
"0. c #8C8041",
"q. c #8C8742",
"w. c #8E8A46",
"e. c #8F8D4B",
"r. c #928347",
"t. c #97814E",
"y. c #94864F",
"u. c #99844F",
"i. c #9B8F49",
"p. c #999344",
"a. c #95924C",
"s. c #9B9049",
"d. c #958556",
"f. c #9C8B54",
"g. c #9D8D55",
"h. c #978A5C",
"j. c #A3975C",
"k. c #A0916B",
"l. c #A2956D",
"z. c #A6986D",
"x. c #A79A6D",
"c. c #A99B6D",
"v. c #A49973",
"b. c #A69D75",
"n. c #A7A065",
"m. c #AAA273",
"M. c #B5AC97",
"N. c #B6AC97",
"B. c #B8AF93",
"V. c #B7B096",
"C. c #B7B09A",
"Z. c #BBB298",
"A. c #BBB398",
"S. c #BAB69F",
"D. c #BAB0A1",
"F. c #B7B5AF",
"G. c #B8B4AD",
"H. c #BEB9A8",
"J. c #BCBAB3",
"K. c #BDBBB4",
"L. c #BFBCB6",
"P. c #BFBDB7",
"I. c #BFBDBB",
"U. c #BEBEBF",
"Y. c #C1B8A8",
"T. c #C1B9A9",
"R. c #C2B9AC",
"E. c #C3BCAE",
"W. c #C0BDB6",
"Q. c #C1BEB7",
"!. c #C3BFBB",
"~. c #C3C0B7",
"^. c #C8C3B0",
"/. c #C9C6B1",
"(. c #C2C0B8",
"). c #C3C0BB",
"_. c #C4C3BC",
"`. c #C5C3BC",
"'. c #BDBEC0",
"]. c #C6C5C2",
"[. c #C6C5C3",
"{. c #C3C3C5",
"}. c #C6C5C4",
"|. c #C7C5C4",
" X c #C7C6C4",
".X c #C8C7C3",
"XX c #C8C7C5",
"oX c #C4C4C8",
"OX c #C4C6C8",
"+X c #C7C7C8",
"@X c #CDCDCE",
"#X c #CDCFD1",
"$X c #CECED0",
"%X c #CED0D0",
"&X c #CED0D2",
"*X c #CFD1D2",
"=X c #D0D0D1",
"-X c #D0D1D1",
";X c #D0D0D2",
":X c #D1D1D3",
">X c #D1D1D4",
",X c #D1D3D5",
"<X c None",
/* pixels */
"<X<X<X<X<X:X[.!.!.[.@X<X<X<X<X<X",
"<X<X<X,XP.N.v.h.d.b.S.!.:X<X<X<X",
"<X<X%XR.+.= F H Y { u i.^.@X<X<X",
"<X:XE.% 5 :.o.z P | | t < /.,X<X",
"<XP.r.K R @ + n w 3 2 &.<.s.~.<X",
":XC.< O.@ + 6 K # s 9 B &.- A.:X",
"[.k.> ^ + s n 5.9.' 2.Y  .,.m..X",
"!.t.& #.v 0 # 9.e.e.a.2.6.p.n._.",
"!.u.$ ^ 0.H 5.} ' q.5.S H y j.`.",
"XXx.- i + z M B @ 1.3.( T . l.XX",
"#XZ.: x X o 4 q N I ' S T   N.:X",
"<XQ.8.1 ^ w B S @ @ @ 9.^ | Q.<X",
"<X#XT.* e &.7.E ..o.o.[ Z T.:X<X",
"<X<X'.D.*., r 6 [ I C y.H.'.<X<X",
"<X<X<XOXG.B.c.g.f.z.A.F.OX<X<X<X",
"<X<X<X<X<X{.!.J.J.[.OX<X<X<X<X<X"
};
