/* XPM */
static char *e6bb5e05fc764bfdfaf4e2951092c939[] = {
/* columns rows colors chars-per-pixel */
"32 32 153 2 ",
"   c #7B5905",
".  c #7C5A0C",
"X  c #7D5C13",
"o  c #7D5D1C",
"O  c #7F6212",
"+  c #7F6A14",
"@  c #7D601C",
"#  c #7A5D21",
"$  c #776027",
"%  c #7D6324",
"&  c #7F6925",
"*  c #7D6629",
"=  c #7D6A2C",
"-  c #766731",
";  c #7F6D35",
":  c #796F3B",
">  c #7E743A",
",  c #777042",
"<  c #7C7643",
"1  c #805E0F",
"2  c #826100",
"3  c #886600",
"4  c #856B00",
"5  c #8A6B00",
"6  c #8B7200",
"7  c #8F7906",
"8  c #8B740F",
"9  c #907B0C",
"0  c #826314",
"q  c #836E13",
"w  c #83651A",
"e  c #866B1D",
"r  c #886E1F",
"t  c #8B7314",
"y  c #87711F",
"u  c #89721E",
"i  c #917C19",
"p  c #816622",
"a  c #856C23",
"s  c #886D23",
"d  c #826C2B",
"f  c #8A6F2E",
"g  c #867125",
"h  c #8A7324",
"j  c #8B7925",
"k  c #85732D",
"l  c #8B752A",
"z  c #86792F",
"x  c #8C7A2C",
"c  c #907C24",
"v  c #917D2C",
"b  c #826E32",
"n  c #886E31",
"m  c #867233",
"M  c #897534",
"N  c #867A33",
"B  c #8D7B32",
"V  c #867539",
"C  c #897739",
"Z  c #867A3B",
"A  c #8B7B3C",
"S  c #917D33",
"D  c #927F39",
"F  c #877441",
"G  c #8D7640",
"H  c #837941",
"J  c #8B7C42",
"K  c #8E7E4B",
"L  c #957D45",
"P  c #93841E",
"I  c #938425",
"U  c #948329",
"Y  c #98852C",
"T  c #988D2F",
"R  c #8D8135",
"E  c #87813F",
"W  c #8E843C",
"Q  c #928236",
"!  c #998D31",
"~  c #93843B",
"^  c #98873D",
"/  c #93893D",
"(  c #988E3D",
")  c #8D8443",
"_  c #8E8946",
"`  c #8D824B",
"'  c #8D8A4D",
"]  c #938543",
"[  c #988641",
"{  c #948A43",
"}  c #9A8D46",
"|  c #90854C",
" . c #938C4D",
".. c #9B9246",
"X. c #95924D",
"o. c #9A924A",
"O. c #8D8453",
"+. c #898851",
"@. c #938654",
"#. c #948B52",
"$. c #9A8B54",
"%. c #948658",
"&. c #939352",
"*. c #9A9451",
"=. c #979854",
"-. c #9D9854",
";. c #9C935B",
":. c #9E9C5B",
">. c #A09554",
",. c #998C6F",
"<. c #9F9373",
"1. c #A29774",
"2. c #A59B75",
"3. c #A09879",
"4. c #A69C85",
"5. c #A99F83",
"6. c #A99D8C",
"7. c #ACA586",
"8. c #ACA18E",
"9. c #AFAA8A",
"0. c #AEA696",
"q. c #AFA69A",
"w. c #AFA999",
"e. c #B0A594",
"r. c #B1AA92",
"t. c #B2AC99",
"y. c #ADAEAE",
"u. c #B3ACA1",
"i. c #B5B2A4",
"p. c #BAB3A6",
"a. c #BBB8A6",
"s. c #B7B7B7",
"d. c #BEBBB1",
"f. c gray",
"g. c #C5C2BC",
"h. c #C8C6BF",
"j. c #CAC8BE",
"k. c #BEBFC1",
"l. c #C3C3C4",
"z. c #C9C6C2",
"x. c #CBC9C3",
"c. c #C6C7C8",
"v. c #C7C8CA",
"b. c #CCCCCC",
"n. c #D3D1CE",
"m. c #CECFD1",
"M. c #CFD0D1",
"N. c #D2D2D3",
"B. c #D7D7D9",
"V. c #D7D8DA",
"C. c #DBDCDC",
"Z. c #DEDEE0",
"A. c None",
/* pixels */
"A.A.A.A.A.A.A.A.A.A.A.A.m.m.M.M.M.M.M.m.A.A.A.A.A.A.A.A.A.A.A.A.",
"A.A.A.A.A.A.A.A.A.m.M.V.C.m.z.g.g.x.n.C.V.m.m.A.A.A.A.A.A.A.A.A.",
"A.A.A.A.A.A.A.b.M.C.z.e.<.%.A A n C @.1.t.z.C.M.b.A.A.A.A.A.A.A.",
"A.A.A.A.A.A.b.C.z.4.n u B W J J V k D ..o.O.9.x.C.b.A.A.A.A.A.A.",
"A.A.A.A.A.m.C.t.G 4 M | ` ` J H A | O.| ` ' ! >.a.C.m.A.A.A.A.A.",
"A.A.A.A.m.V.6.2 s A ` A C J m m z ~ ] V ) } [ ~ I r.V.m.A.A.A.A.",
"A.A.A.m.C.8.u A n n A V V M a * d B B B S B x D ~ P r.C.m.A.A.A.",
"A.A.b.Z.u.3 ] J X b C C C b & & e h g g e e l S ~ } T a.C.b.A.A.",
"A.A.m.z.G M ` n X d b # % a l h s r e w w w x Q ~ } ( -.x.m.A.A.",
"A.m.C.4.l  .[ * w a d o O w h g p h w X X e l R / ( } I 7.Z.m.A.",
"A.M.x.` ) } S d b k % o + w e g - k u 0 w e x B B S D S [ x.m.A.",
"A.V.w.z [ Q d p = b % @ e y u k H < k r e g j j g g B S i t.V.A.",
"m.V.,.q [ S s d % p ; w h j z E _ , = j j j j g g l B { I 2.V.m.",
"m.n.K 0 D S l a * w e r g U > ' ' : = R W / W z x R ( =.( ;.n.m.",
"M.x.S h B l B M # X w y g & : +.&.' _ W &.X.( R R { o.:.o.o.x.m.",
"M.g.s s l h s J J * O = - - E W _ &._ _ =.o.R x R ~ o.-.o.o.j.m.",
"n.g.s r f f w n *.A X m | _ N z N E W _ _ W x y e j B { / ..j.m.",
"N.z.S c f s p w J X.d w R / R k > R R E R k g ; * @ a M S } x.m.",
"N.n.$.c S s s 1 X Z Z w e z j g & P I E ~ N k A b o @ b j $.n.m.",
"m.B.2.i D f p 1   1 * * & k g g = = = R W ~ j C b % o n + 1.C.M.",
"A.V.t.i ^ v w 1 . 1     0 w & e z g g j ~ ( B s o . o a 4 w.V.A.",
"A.n.z.[ D D f w X 0 X . 0 0 O 0 e j g k ; $ g s b w o w A z.m.A.",
"A.b.C.5.7 D l s s e w w r e s l U k = d @ X @ Z K # p 6 5.C.m.A.",
"A.A.M.z.D c D h h r l x v S Q B > # & k k Z Z ` K F 3 ) x.m.A.A.",
"A.A.x.Z.p.i S S v l l S ~ Q b % o d d k m A D A %.@.t p.C.b.A.A.",
"A.A.A.m.B.4.3 S D v v S Q A * X m ` V a Z m n Z $.B 4.B.m.A.A.A.",
"A.A.A.A.y.z.e.3 h S S S Q B V d D #.` m |  .J A W t.z.y.A.A.A.A.",
"A.A.A.A.A.l.k.q.L 5 v ~ [ D b M Z ` ` | #.#.x @.i.l.l.A.A.A.A.A.",
"A.A.A.A.A.A.s.V.g.5.[ Y I U l x x u 8 9 U @.4.g.B.f.A.A.A.A.A.A.",
"A.A.A.A.A.A.A.k.l.v.g.t.2.$.[ ^ ^ ) $.1.e.h.v.c.f.A.A.A.A.A.A.A.",
"A.A.A.A.A.A.A.A.A.f.v.l.M.x.g.g.d.g.n.C.b.c.f.A.A.A.A.A.A.A.A.A.",
"A.A.A.A.A.A.A.A.A.A.A.A.f.v.l.v.k.z.N.b.A.A.A.A.A.A.A.A.A.A.A.A."
};
