/* XPM */
static char *_dc3cc654f474725e8b5e24481e242e0[] = {
/* columns rows colors chars-per-pixel */
"64 64 250 2 ",
"   c #6E4600",
".  c #6F4B00",
"X  c #734F03",
"o  c #775504",
"O  c #795501",
"+  c #7D5B04",
"@  c #765409",
"#  c #7A560C",
"$  c #7B5A0D",
"%  c #6B5019",
"&  c #735714",
"*  c #7B5613",
"=  c #775916",
"-  c #7D5C12",
";  c #74561C",
":  c #7A5718",
">  c #765B1B",
",  c #7C5D1A",
"<  c #7E6500",
"1  c #7F600D",
"2  c #7F6214",
"3  c #7D611C",
"4  c #7E6C1E",
"5  c #6C5621",
"6  c #755D21",
"7  c #7B5F23",
"8  c #775A2B",
"9  c #7A5F29",
"0  c #7D6423",
"q  c #7E6A25",
"w  c #75642C",
"e  c #7C652A",
"r  c #7E6A2C",
"t  c #7F702B",
"y  c #6F6031",
"u  c #726536",
"i  c #796731",
"p  c #776931",
"a  c #7D6B32",
"s  c #746A3C",
"d  c #7C6E39",
"f  c #7E7235",
"g  c #77703B",
"h  c #7D723C",
"j  c #51504F",
"k  c #746E41",
"l  c #7C6F42",
"z  c #767043",
"x  c #7A7544",
"c  c #7F7944",
"v  c #75744B",
"b  c #79744B",
"n  c #7F7C49",
"m  c #747350",
"M  c #656463",
"N  c #805E00",
"B  c #805F13",
"V  c #805F1A",
"C  c #826300",
"Z  c #866B00",
"A  c #8B6E00",
"S  c #81640E",
"D  c #876F0D",
"F  c #867102",
"G  c #8C7402",
"H  c #8C7800",
"J  c #8A720E",
"K  c #8E790A",
"L  c #917A03",
"P  c #947F0F",
"I  c #826316",
"U  c #836915",
"Y  c #83651B",
"T  c #856B1D",
"R  c #896D1E",
"E  c #8C7214",
"W  c #8F7B12",
"Q  c #86711F",
"!  c #89711F",
"~  c #8E7A1D",
"^  c #907E1A",
"/  c #816623",
"(  c #856B23",
")  c #896D23",
"_  c #806728",
"`  c #836C2B",
"'  c #8A6F29",
"]  c #867324",
"[  c #897324",
"{  c #8C7926",
"}  c #85732C",
"|  c #8B742B",
" . c #86782D",
".. c #8C7A2C",
"X. c #907720",
"o. c #927E24",
"O. c #90772E",
"+. c #917C2C",
"@. c #816D33",
"#. c #8A6F30",
"$. c #816D38",
"%. c #857233",
"&. c #8A7533",
"*. c #857B35",
"=. c #8C7C32",
"-. c #84743A",
";. c #8A763A",
":. c #857B3C",
">. c #8B7B3C",
",. c #917D33",
"<. c #927D3A",
"1. c #837543",
"2. c #847A42",
"3. c #8B7D42",
"4. c #847C4A",
"5. c #8B7E4A",
"6. c #917F42",
"7. c #917C49",
"8. c #8F811E",
"9. c #95811E",
"0. c #8E802F",
"q. c #938224",
"w. c #95842B",
"e. c #96892C",
"r. c #8E8134",
"t. c #87803C",
"y. c #8D833B",
"u. c #8E893F",
"i. c #928235",
"p. c #938834",
"a. c #998E34",
"s. c #94843B",
"d. c #99873E",
"f. c #94893D",
"g. c #998D3C",
"h. c #9C913C",
"j. c #868145",
"k. c #8D8244",
"l. c #8E8943",
"z. c #87834B",
"x. c #8D834B",
"c. c #8E8B4D",
"v. c #938443",
"b. c #988741",
"n. c #958C43",
"m. c #998D43",
"M. c #92854B",
"N. c #99864B",
"B. c #948B4C",
"V. c #998E4A",
"C. c #969046",
"Z. c #9B9145",
"A. c #95924B",
"S. c #9C934C",
"D. c #878252",
"F. c #8D8653",
"G. c #8E8D52",
"H. c #8C8358",
"J. c #878A5C",
"K. c #8D8A5B",
"L. c #938752",
"P. c #938C52",
"I. c #9A8D54",
"U. c #94865B",
"Y. c #938B5C",
"T. c #9C8D5E",
"R. c #959451",
"E. c #9A9353",
"W. c #969854",
"Q. c #9A9955",
"!. c #96915C",
"~. c #99925A",
"^. c #9E9D5B",
"/. c #A2984C",
"(. c #A19750",
"). c #A39B52",
"_. c #A3995C",
"`. c #A9A257",
"'. c #AAA35B",
"]. c #838163",
"[. c #968464",
"{. c #988665",
"}. c #9D8C65",
"|. c #998B6D",
" X c #9C9263",
".X c #9E9B64",
"XX c #9E9574",
"oX c #A29C61",
"OX c #A2956C",
"+X c #A09868",
"@X c #A39B72",
"#X c #A99D77",
"$X c #A2947B",
"%X c #A5997E",
"&X c #A89E7E",
"*X c #AAA274",
"=X c #939395",
"-X c #989897",
";X c #9C9C9C",
":X c #A69986",
">X c #A99D80",
",X c #A79C8B",
"<X c #A99E88",
"1X c #ABA282",
"2X c #AEA48D",
"3X c #AFA98D",
"4X c #B2AD8F",
"5X c #ABA592",
"6X c #ACA894",
"7X c #AFA699",
"8X c #AEA99B",
"9X c #B1A797",
"0X c #B1A993",
"qX c #B1A698",
"wX c #B3AC9C",
"eX c #B6B09E",
"rX c #B8B29F",
"tX c #A3A3A3",
"yX c #AFACA0",
"uX c #ACACAC",
"iX c #B4ADA1",
"pX c #B6B2A3",
"aX c #B9B4A3",
"sX c #B0B0AF",
"dX c #BBB6AF",
"fX c #BDBAAB",
"gX c #AFAFB0",
"hX c #B1B2B2",
"jX c #BDBAB2",
"kX c #B7B7B8",
"lX c #B7B8BA",
"zX c #BBBBBA",
"xX c #C1BDB5",
"cX c #C2BEB8",
"vX c #C3C1B7",
"bX c #C4C2BD",
"nX c #BCBDC0",
"mX c #C4C4C3",
"MX c #C9C8C6",
"NX c #C7C8C8",
"BX c #CCCCCC",
"VX c #D1D0CF",
"CX c #CECFD0",
"ZX c #CFD0D1",
"AX c #D3D3D3",
"SX c #D8D8D7",
"DX c #D8D7D8",
"FX c #DADAD9",
"GX c gray88",
"HX c None",
/* pixels */
"HXHXHXHXHXHXHXHXHXHXHXHXHXHXHXHXHXHXHXHXHXHXHXHXHXHXHXBXBXBXBXBXBXBXBXBXBXHXHXHXHXHXHXHXHXHXHXHXHXHXHXHXHXHXHXHXHXHXHXHXHXHXHXHX",
"HXHXHXHXHXHXHXHXHXHXHXHXHXHXHXHXHXHXHXHXHXHXBXBXBXAXFXFXDXDXAXAXAXDXDXFXFXDXAXBXBXHXHXHXHXHXHXHXHXHXHXHXHXHXHXHXHXHXHXHXHXHXHXHX",
"HXHXHXHXHXHXHXHXHXHXHXHXHXHXHXHXHXHXHXHXBXBXFXDXAXBXBXCXAXCXCXCXBXCXZXZXCXBXBXCXDXSXBXBXHXHXHXHXHXHXHXHXHXHXHXHXHXHXHXHXHXHXHXHX",
"HXHXHXHXHXHXHXHXHXHXHXHXHXHXHXHXHXHXBXDXDXBXBXAXBXBXMXbXdXpXyXeXwXwXpXjXbXMXBXCXAXBXVXDXDXBXHXHXHXHXHXHXHXHXHXHXHXHXHXHXHXHXHXHX",
"HXHXHXHXHXHXHXHXHXHXHXHXHXHXHXHXBXSXAXBXCXCXBXcXwX$XU.M._ C | =.Z C [ O.M. X%XeXzXMXCXCXBXAXFXBXHXHXHXHXHXHXHXHXHXHXHXHXHXHXHXHX",
"HXHXHXHXHXHXHXHXHXHXHXHXHXHXBXDXAXMXBXAXbXqX{.6.D { >.3.6.k.L.M.#.` ;.&.&.&.T :.!.|.qXbXVXVXBXAXDXBXHXHXHXHXHXHXHXHXHXHXHXHXHXHX",
"HXHXHXHXHXHXHXHXHXHXHXHXHXBXFXBXBXAXbX,X7.C N 6.M.L.L.x.M.3.3.3.1.$.@.&.:.P.!..X`.x.@.L.6XbXVXBXBXFXBXHXHXHXHXHXHXHXHXHXHXHXHXHX",
"HXHXHXHXHXHXHXHXHXHXHXHXVXAXBXCXBXwX7.N ( ;.3.M.M.5.v.x.k.3.2.1.4.3.3.:.5.S./.).`..X].!.Z._.eXMXBXBXDXBXHXHXHXHXHXHXHXHXHXHXHXHX",
"HXHXHXHXHXHXHXHXHXHXBXFXBXBXAXjX[.) ,.3.#.7.x.v.M.6.v.x.3.>.x.2.h i.Z.3.1.c.Z.M.P.Y.5.!.(.m.a.#XvXVXBXCXFXBXHXHXHXHXHXHXHXHXHXHX",
"HXHXHXHXHXHXHXHXHXBXFXBXBXCXwX_ N #.;.%.;.6.6.F.x.3.3.4.;.:.3.3.-.i.g.x.z.D.4.-.s l F.B.Z.V./.h.(.aXBXBXBXFXBXHXHXHXHXHXHXHXHXHX",
"HXHXHXHXHXHXHXHXBXFXBXBXBX:XC I &.<.@.#.3.N.3.k.&.%.3.3.-.@.} ;.1.;.s.u.g.v.b :.y.B.S.m.d.s.Z.V.m.e.3XBXBXBXFXBXHXHXHXHXHXHXHXHX",
"HXHXHXHXHXHXHXHXFXBXBXBX$XN &.#.#.3.<.3.;.M.&.` @.3.3.6.&._ ;.&.e %.i.s.s.f.<.i.d.g.s.s.i.<.u.b.b.m.9.1XBXBXBXSXHXHXHXHXHXHXHXHX",
"HXHXHXHXHXHXHXAXBXBXBX:XZ ;.3.&.` ' ` #.:.3.&.` %.:.&.;.%.%.:._ 4 | ,.i.s.:.&.,.,.i.s.i.=.O.r.i.i.b.n.q.&XBXVXVXAXHXHXHXHXHXHXHX",
"HXHXHXHXHXHXBXAXBXBX<XG 7.N.N.&.` ` / #.<.v.:.&.;.%.@.-._ ( , e } } ..,.=.%.| O.| | =.O.O.O.O.,.i.v.m.V.e.4XBXBXAXBXHXHXHXHXHXHX",
"HXHXHXHXHXBXDXBXAX8XC %.6.M.M.#.Y V 7 ;.@.&.:.$.;.;.>._ 3 3 , ( 0 q ] ) ) [ | [ ) _ ) )  .O.=.,.i.d.g.B.S.a.aXCXBXFXBXHXHXHXHXHX",
"HXHXHXHXHXDXBXCXxX;.#.3.6.v.y.#.B : / >.6.` ;.3.6.:.;.e q ` ) T = T ! T ] ] ] R Y I I ( | O.=.r.,.y.g.b.S.Z.S.vXBXBXDXHXHXHXHXHX",
"HXHXHXHXBXAXBXMX[.D 6.&.&.3.<.` V V Y -.;./ a e @.@.0 ) ..[ [ ] ) R ! ! ( R T Y Y I I R | =.,.i.i.i.l.n.Z.V.h.*XBXBXAXBXHXHXHXHX",
"HXHXHXHXFXBXAX7XZ >.<.;.5.5.;./ V V - _ ;.` = @ & - Y ) ] [ [ ] [ [ ) ] R Y I I I I Y ! [ O.,.p.u.g.b.Z.n.Z.S.a.eXCXBXSXHXHXHXHX",
"HXHXHXBXAXCXbXU.>.5.5.M.S.v.7 # , _ / ` -.` + : > I T ) [ ) [ { r / [ ) T B B - : I Y Q | =.r.i.f.g.n.n.n.n.V.g.E.bXVXAXBXHXHXHX",
"HXHXHXDXBXVX6X[ L.5.M.V.h.s.` _ , / ) / _ _ > I I U Y T ! ! [ | > 6 ) ) R U I - - B Y Q [ =.=.i.u.p.f.f.f.f.v.n.q.0XCXBXDXHXHXHX",
"HXHXBXFXBXbXU.| 3.F.Z.g.s.O.d $.` ` &._ _ _ _ 2 Y U I T T T { t > $.0.! Q U I - I I Y ! [ =.0.r.,.,.r.i.,.i.i.v.0.I.mXBXDXBXHXHX",
"HXHXBXBXVXyXt.3.3.V.m.s.i.| / 3 %.;.;.%._ _ 3 - Y Y Y U T T Q  .u y f r.[ T Y U Y U Y T [ ..=.=.O.|  .O.O.,.<.i.b.q.eXCXBXBXHXHX",
"HXBXFXBXBXXXi.x.v.g.d.i.| } Y - @.a a ` 3 @ # 3 U U T T T ] Q r.z c d k =.] T T T ! ) ] ] O.O...| ) | | O.,.,.=.b.q.@XBXBXFXHXHX",
"HXBXDXCXjX3.M.x.d.s.i.i.r _ I 9 -.: > $.e 0 0 4 ! ! ] ] ] ] 0.f 2.j.z.s f { ] ) T ) ] ] { ] ..} ] ] ' }  .i.,.i.s.s.b.vXCXSXBXHX",
"HXBXAXBX8X< 3.>.i.i.s.O.a [ U ` d N B a >.%.3 U ] [ [ ] ] 0.f g g.2.v x g 0.] ] ] ] { ]  .{ ] ] ] ) } |  .i.s.s.u.b.8.pXCXAXBXHX",
"HXAXBXBX$X< @.;.s.s.i.,.| [ R ` a I Y V d / 2 Q Q [ {  .{ f h l.C.l.h h 5 t 8. ...0.r.0. .] ] ] ] [  .O.r.y.f.n.n.V.q.1XCXBXCXHX",
"HXFXBXMXU.( $.@.,.i.,.,...[ T a $.I I Y I T R ! ] { ..q.y.x n.C.C.n k p & p 0. .r.r.u.r.0.0.{ { | ..=.0.i.b.C.C.V.V.p..XBXBXFXHX",
"BXFXCXbX6.' a %.+.O.,.O._ ] R Y a 0 $ I Y ! ( ! ] ] { r.f u G.R.G.v z.g k f r.r.u.u.n.u.u.p.r. .0.=.r.y.f.C.S.S.V.A.g.I.bXCXFXBX",
"BXDXZXjX..| ` #.| | O.O.| O.;.2 , a > - I T ] ] ] { } :.w w m J.J.c.A.l.j.u.u.u.C.R.R.n.u.u.r.0.0.s.f.C.C.A.^.^.S.S.n.g.vXCXSXBX",
"BXAXCXaXE &.,.| | | [ { | O.M.&.> ` 3 $ 1 T [ Q Q } w 5 s n z.R.R.R.R.A.l.l.l.C.R.Q.R.C.u.f.s.r.r.f.v.C.C.S.^.^.Q.S.A.h.fXBXDXBX",
"BXAXAXeXA &.O.| | | | [ [ | k.B.a > r 3 - T 4 2 q a . % j.n.u.u.C.R.W.R.l.A.l.A.W.W.R.C.g.f.0.0.=.p.u.f.C.S.Q.Q.(.S.(.h.aXCXAXBX",
"BXAXCX8XA | #.' | | ' ) ) ' %.k.V.M.g w 2 1 ` p 6 p u c C.*.*.u.u.u.R.z.c.C.g A.R.R.R.C.r.......=.=.=.p.C.C.S.S.S.S.(.h.aXCXAXBX",
"BXAXCXwXA #.' ) ' ' ) ) ) R #.1.Q.).z.d T + %.L.2.l.P.u.*.t t.*.*.*.t.n A.l.f l.B.A.n.f.0.{ ] ) [ [  .,.p.g.l.Z.n.Z.S.h.aXCXAXBX",
"BXAXZXwXZ O.#.) ' ' ) ) Y / V $.M.Z.v.$.2 + Y y.f.C.C.f.:. .0.t t.t.f l.u.u.t.A.j.f } t.0...] T T T ) [ O.;.i.i.s.b.V.g.aXAXAXBX",
"BXDXCXaXD +.O.| ' ' ' ) ) Y I _ 4.Q.C.>.$.( 2 } i.t.A.l.r.r.r.t 4 t r. . .u.u.l.l.t.] *. .` ] } 0 $ Y Y _ r @.+.,.v.n.a.fXCXSXBX",
"BXDXAXdXO.,.>.,.O.' ' ' Y ) B B e k.S.n.;._ Y / } =.y.u.u...{ t t t r.0.t.*.t.t.*.u.} t ` 2 ` 2.d e 3 Y R _ i | ,.i.s.d.xXCXSXBX",
"BXFXCXvX6.+.s.,.,.O.' ' ) Y I B O - 6.B.>.+ N S U T Q ....[ { }  .t t 0. . .t.u.f.y.0...} } >.x.w _ _ : 0 @.` _ +.s.0.N.bXCXFXBX",
"HXFXBXMXT.o.d.,.,.O.| ) ) Y I B - + - %.3.%._ Y ) T ] ] Q ] ] ] Q ] t Q 8.0.u.p.u.l.r.$.O.| O.3.w ` _ : 6 V ) ` $.<.q. XMXBXSXHX",
"HXCXBXCX>X^ b.,.,.+.{ ' ) Y B B # $ B + e 1.:.$.r } %.} Q ! Q U S U Q Q  .0.r.u.*.i.n. ...} | 3.;.@.e V # V ) O.d 1.8.1XBXBXAXHX",
"HXBXAXCXrX^ b.d.,.+.O.' ) R B B $ $ B B O - - 3 r } %.&.} %.} ` } f h t ] t 0.0.*.i.g.p.+. .&.3.1.3 - 7 V , / ' &.l ] eXCXAXBXHX",
"HXBXSXAXcXd.i.d.s.,.+.| ) I B * $ $ $ B B + O O I I U T Y ` } %.&.t %.} ! ] ..0.w.d.u.i.p.O.Q _ 8 B B * 9 / Y ' ` } k.cXBXFXBXHX",
"HXHXFXBXBXOX^ v.s.s.,.O.) Y B # @ # B B B # @ $ B I I I + + S 2 4 ) ] ` ! ] ] { p.n.V.g.>. .] Y 9 * * * B V V Y &.F |.BXBXFXHXHX",
"HXHXBXBXCXeXW v.s.s.,.+.' ) I B - B B B I # # $ I I U Y 1 1 I U U T ] T ] ] [ } -.g i a a | ] _ _ O B * V V V / ,.Z 8XAXVXBXHXHX",
"HXHXBXDXCXbXI.{ d.d.,.,.O.) R Y U I I T I I $ I I I Y U T 2 U ] T [ [ [ } q { t q - . @ 0 +.! Y 7.1.* * V V ) #.R L.mXCXDXBXHXHX",
"HXHXHXDXBXAX2XH d.<.,.,.O.' ) R ) T ( R I I B I U T R ! ! ! ! ] [ ..{ } r a $.:.} # , # > } T $.I.H.8 O V / ' ,.H 5XCXBXAXHXHXHX",
"HXHXHXBXAXBXbXM.+.b.s.O.+.| ) ) R ( ( Y R Y Y T R ] ) ) ) [ ) [ { =.:.e ` &.q } ` 3 _ ( > r r x.I.x.; - V ) <.+.5.bXCXVXBXHXHXHX",
"HXHXHXHXDXBXCXqXG <.,.,.O.+.| ) ) ) ) ! [ ] [ [ [ ..O.=.+.....+.s.-.p 3 0 _ ` _ 0 } } &.` &.:.3.N.v.e Y ) | ,.K 7XCXBXDXHXHXHXHX",
"HXHXHXHXBXAXBXBX}.G d.,.,.,.O.| ' ' [ [ [ | +.,.0.0.r.p.w.s.s.<.y.8 O 3 3 4 &.>.%.-.<.:.k.v.P.>.k.I.H.@.' >.H OXBXBXDXBXHXHXHXHX",
"HXHXHXHXHXDXBXCXjX,.+.<.,.,.+.O.+.| | | [ +.i.i.w.s.p.i.y.-.-.i ; I / 0 / 4 &.;.` &.x.:.>.B.k.k.M.E.~.1.&.+.,.cXCXBXDXHXHXHXHXHX",
"HXHXHXHXHXBXFXBXCXeXG >.,.,.O.+.,.+.+.| | ,.,.i.s.p.s.y.w   X @ o _ %.-.` 3 ` } ` ;.:.%.*.>.&.#.M.P.N.5.O.A iXCXBXFXBXHXHXHXHXHX",
"HXHXHXHXHXHXBXAXBXAX2XA <.,.O.O.,.+.O.| O.O.=.r.i.i.s.a T 3 - , 0 %.k.k.:.&._ } &.3.| } ;.;.&.` v.~.M.;.A 2XAXBXAXBXHXHXHXHXHXHX",
"HXHXHXHXHXHXHXAXBXMXMX$XN O.,.,.+.O.O.O.O...| =.,.u.i.:.>.` 0 _ @.3.n.4.3.6.} #.| k.;.=.@.| &.%.L.oX!.C &XBXBXBXBXHXHXHXHXHXHXHX",
"HXHXHXHXHXHXHXHXAXj -XVX$XN #.<.,.O.O.O.+.O.O.O.,.s.i.3.$.%.%.} %.v.n.x.x.:.` ` %.M.M.k.%.6.3.<.~. X] &XAX=XM DXHXHXHXHXHXHXHXHX",
"HXHXHXHXHXHXHXHXMXtXuXVXBX:XC R <.,.O.O.,.+.,.,.i.s.i.O.0 %.&._ ;.k.P.B.L.k.>.>.x.B.B.P.x.3.3.v.P.t.2XBXCXtX;XBXHXHXHXHXHXHXHXHX",
"HXHXHXHXHXHXHXHXHXDXGXBXgXMXiXR C <.,.O.+.>.,.s.s.s.i.,.&.` =.` ` ,.B.L.F.x.F.K.L.E.E.I.I.>.6.*.L.pXmXkXBXGXDXHXHXHXHXHXHXHXHXHX",
"HXHXHXHXHXHXHXHXHXHXVXMX-X;XbXcX}.A X.<.<.,.<.d.d.s.i.,.} e ;.;.r f x.;.-.&.y.k.v.F.K.~.6.=.=.@XvXCXtX=XmXBXHXHXHXHXHXHXHXHXHXHX",
"HXHXHXHXHXHXHXHXHXHXHXHXzXuXBXCXbXqXN.L o.s.b.b.b.d.s.<.;.#.%.>.>.=.&.| | O.,.d.d.6.Y.L.4 H.pXnXBXAXBXkXHXHXHXHXHXHXHXHXHXHXHXHX",
"HXHXHXHXHXHXHXHXHXHXHXHXHXBXGXzXgXAXmX0XI.q.q.d.b.m.b.d.i.s.,.i.u.i.+.,.+.<.<.d.i.P w.K.5XbXAXmXtXFXBXHXHXHXHXHXHXHXHXHXHXHXHXHX",
"HXHXHXHXHXHXHXHXHXHXHXHXHXHXBXkXAXVXkXkXbXrX#XV.9.9.q.w.i.s.s.s.s.s.,.+.+.~ K W v.#XrXmXnXhXmXFXbXzXHXHXHXHXHXHXHXHXHXHXHXHXHXHX",
"HXHXHXHXHXHXHXHXHXHXHXHXHXHXHXHXBXAX;XtXAXAXMXxXaX1XOXN.,.o.o.o.o.o.o.,.b.}.>XrXcXzXBXAXgXgXmXCXHXHXHXHXHXHXHXHXHXHXHXHXHXHXHXHX",
"HXHXHXHXHXHXHXHXHXHXHXHXHXHXHXHXHXHXhXNXFXBXtXzXAXMXzXcXjXaXpXeXpXiXaXjXbXMXBXAXmXgXBXFXBXhXHXHXHXHXHXHXHXHXHXHXHXHXHXHXHXHXHXHX",
"HXHXHXHXHXHXHXHXHXHXHXHXHXHXHXHXHXHXHXHXBXzXuXBXDXuXlXCXCXzXCXAXBXhXNXAXCXBXBXAXAXzXzXBXHXHXHXHXHXHXHXHXHXHXHXHXHXHXHXHXHXHXHXHX",
"HXHXHXHXHXHXHXHXHXHXHXHXHXHXHXHXHXHXHXHXHXHXHXNXBXkXBXFXAXhXBXDXBXtXBXFXFXFXCXBXBXHXHXHXHXHXHXHXHXHXHXHXHXHXHXHXHXHXHXHXHXHXHXHX",
"HXHXHXHXHXHXHXHXHXHXHXHXHXHXHXHXHXHXHXHXHXHXHXHXHXHXHXCXBXsXkXCXMXuXzXBXBXHXHXHXHXHXHXHXHXHXHXHXHXHXHXHXHXHXHXHXHXHXHXHXHXHXHXHX"
};
